<svg xmlns="http://www.w3.org/2000/svg" version="1.1" xmlns:xlink="http://www.w3.org/1999/xlink" xmlns:svgjs="http://svgjs.com/svgjs" width="128" height="128"><svg width="128" height="128" viewBox="0 0 128 128" fill="none" xmlns="http://www.w3.org/2000/svg">
<path d="M12.5 122V6H69.9019C93.5094 6 113.56 16.8699 113.56 40.5566C113.56 53.8601 106.768 63.2699 94.6413 68.786V69.2727C104.02 72.842 108.871 79.3315 110.811 88.4168C113.883 102.369 111.296 119.08 115.5 120.215V122H82.1908C78.9568 119.729 80.2504 105.452 77.825 95.0685C75.7229 86.1455 71.8422 81.6028 61.9788 81.6028H46.2944V122H12.5ZM46.2944 32.607V57.4294H64.4042C74.106 57.4294 79.4419 53.2112 79.4419 45.0993C79.4419 37.4741 74.5911 32.607 64.8893 32.607H46.2944Z" fill="#FFD561"></path>
</svg><style>@media (prefers-color-scheme: light) { :root { filter: none; } }
</style></svg>