<svg width="294" height="294" viewBox="0 0 294 294" fill="none" xmlns="http://www.w3.org/2000/svg">
<rect width="294" height="294" fill="#F16C0D"/>
<path d="M48 258V36H157.788C202.94 36 241.289 56.8028 241.289 102.134C241.289 127.594 228.3 145.603 205.105 156.159V157.091C223.042 163.922 232.32 176.341 236.031 193.729C241.907 220.431 236.959 252.411 245 254.585V258H181.292C175.107 253.653 177.581 226.33 172.942 206.459C168.922 189.382 161.499 180.688 142.634 180.688H112.636V258H48ZM112.636 86.9203V134.425H147.273C165.829 134.425 176.035 126.352 176.035 110.828C176.035 96.235 166.757 86.9203 148.201 86.9203H112.636Z" fill="#07070A"/>
</svg>
