<svg width="294" height="294" viewBox="0 0 294 294" fill="none" xmlns="http://www.w3.org/2000/svg">
<g clip-path="url(#clip0_738_1553)">
<rect width="294" height="294" fill="#390A57"/>
<path d="M0 302V-7H153.257C216.287 -7 269.82 21.9553 269.82 85.0517C269.82 120.49 251.688 145.555 219.309 160.249V161.545C244.349 171.053 257.3 188.34 262.48 212.541C270.683 249.708 263.776 294.221 275 297.246V302H186.068C177.433 295.95 180.887 257.919 174.411 230.26C168.799 206.491 158.438 194.39 132.104 194.39H90.2276V302H0ZM90.2276 63.8755V129.997H138.579C164.482 129.997 178.728 118.761 178.728 97.1524C178.728 76.8406 165.777 63.8755 139.874 63.8755H90.2276Z" fill="#FFD561"/>
</g>
<defs>
<clipPath id="clip0_738_1553">
<rect width="294" height="294" fill="white"/>
</clipPath>
</defs>
</svg>
