<?xml version="1.0" standalone="no"?>
<!DOCTYPE svg PUBLIC "-//W3C//DTD SVG 20010904//EN"
 "http://www.w3.org/TR/2001/REC-SVG-20010904/DTD/svg10.dtd">
<svg version="1.0" xmlns="http://www.w3.org/2000/svg"
 width="294.000000pt" height="294.000000pt" viewBox="0 0 294.000000 294.000000"
 preserveAspectRatio="xMidYMid meet">
<metadata>
Created by potrace 1.14, written by Peter Selinger 2001-2017
</metadata>
<g transform="translate(0.000000,294.000000) scale(0.100000,-0.100000)"
fill="#000000" stroke="none">
<path d="M480 1470 l0 -1110 325 0 325 0 0 385 0 385 189 0 c258 0 311 -20
370 -143 38 -78 57 -177 75 -394 10 -112 20 -182 31 -202 l16 -31 319 0 c313
0 320 0 320 20 0 11 -4 20 -8 20 -21 0 -35 66 -43 205 -20 333 -35 425 -86
533 -34 73 -130 169 -205 205 -32 15 -58 29 -58 32 0 2 28 19 62 37 121 64
220 176 268 303 31 82 39 261 16 357 -64 272 -303 454 -651 497 -56 7 -311 11
-677 11 l-588 0 0 -1110z m1121 584 c67 -20 132 -81 148 -139 26 -94 7 -189
-51 -247 -59 -59 -106 -68 -355 -68 l-213 0 0 235 0 235 208 0 c162 0 220 -4
263 -16z"/>
</g>
</svg>
